<svg xmlns="http://www.w3.org/2000/svg" width="90" height="90" viewBox="0 0 90 90">
    <g fill="none" fill-rule="evenodd">
        <path fill="#0B0" d="M90 45c0 24.853-20.147 45-45 45S0 69.853 0 45 20.147 0 45 0s45 20.147 45 45"/>
        <path fill="#FFF" d="M45 55a2 2 0 0 1-1.414-.586l-10-10a2 2 0 1 1 2.828-2.828l8.575 8.575 24.394-24.757a1.999 1.999 0 1 1 2.849 2.807L46.425 54.403a2 2 0 0 1-1.417.597H45z"/>
        <path fill="#FFF" d="M64.685 41.57C64.879 42.689 65 43.83 65 45c0 11.029-8.971 20-20 20-11.028 0-20-8.971-20-20 0-11.028 8.972-20 20-20 5.324 0 10.155 2.104 13.742 5.506l2.804-2.847c-4.31-4.114-10.131-6.66-16.546-6.66-13.233 0-24 10.768-24 24 0 13.235 10.767 24 24 24 13.234 0 24-10.765 24-24 0-2.361-.356-4.64-.995-6.798l-3.32 3.37z"/>
    </g>
</svg>
